<?xml version="1.0" encoding="UTF-8" standalone="no"?>
<svg width="232px" height="143px" viewBox="0 0 232 143" version="1.1" xmlns="http://www.w3.org/2000/svg" xmlns:xlink="http://www.w3.org/1999/xlink">
    <!-- Generator: Sketch 41 (35326) - http://www.bohemiancoding.com/sketch -->
    <title>Logo-stacked-BB Copy 4</title>
    <desc>Created with Sketch.</desc>
    <defs></defs>
    <g id="home" stroke="none" stroke-width="1" fill="none" fill-rule="evenodd">
        <g id="Logo-stacked-BB-Copy-4">
            <path d="M8.0002,119.6489 C8.0002,118.3499 8.2242,117.1219 8.6732,115.9639 C9.1222,114.8069 9.7472,113.8029 10.5502,112.9529 C11.3532,112.1029 12.3102,111.4289 13.4202,110.9339 C14.5302,110.4379 15.7462,110.1899 17.0682,110.1899 C18.7452,110.1899 20.2212,110.5669 21.4972,111.3239 C22.7722,112.0799 23.7282,113.1299 24.3662,114.4759 L22.6302,115.0429 C22.0862,114.0279 21.3132,113.2309 20.3102,112.6529 C19.3052,112.0739 18.2022,111.7849 16.9982,111.7849 C15.9822,111.7849 15.0372,111.9849 14.1642,112.3859 C13.2902,112.7889 12.5282,113.3429 11.8792,114.0509 C11.2292,114.7589 10.7162,115.5919 10.3382,116.5489 C9.9602,117.5039 9.7712,118.5389 9.7712,119.6489 C9.7712,120.7579 9.9662,121.8029 10.3552,122.7839 C10.7452,123.7639 11.2642,124.6139 11.9152,125.3339 C12.5632,126.0539 13.3312,126.6279 14.2172,127.0509 C15.1032,127.4769 16.0412,127.6899 17.0332,127.6899 C17.6712,127.6899 18.3022,127.5949 18.9282,127.4069 C19.5532,127.2159 20.1332,126.9679 20.6642,126.6629 C21.1952,126.3559 21.6562,125.9959 22.0452,125.5819 C22.4352,125.1699 22.7012,124.7379 22.8432,124.2899 L24.5792,124.7859 C24.3412,125.4209 23.9812,126.0189 23.4982,126.5739 C23.0142,127.1289 22.4412,127.6069 21.7802,128.0089 C21.1192,128.4109 20.3872,128.7229 19.5832,128.9469 C18.7812,129.1719 17.9542,129.2839 17.1042,129.2839 C15.8052,129.2839 14.6012,129.0289 13.4912,128.5229 C12.3812,128.0149 11.4182,127.3179 10.6042,126.4319 C9.7892,125.5449 9.1512,124.5259 8.6902,123.3679 C8.2302,122.2119 8.0002,120.9709 8.0002,119.6489 Z" id="Fill-3" fill="#FFFFFF"></path>
            <path d="M35.8791,129.2837 C34.5791,129.2837 33.3821,129.0297 32.2831,128.5217 C31.1861,128.0137 30.2341,127.3237 29.4321,126.4497 C28.6291,125.5767 28.0031,124.5597 27.5541,123.4037 C27.1061,122.2467 26.8811,121.0297 26.8811,119.7547 C26.8811,118.4557 27.1111,117.2277 27.5711,116.0707 C28.0331,114.9147 28.6651,113.8987 29.4671,113.0237 C30.2701,112.1497 31.2201,111.4597 32.3191,110.9517 C33.4171,110.4437 34.6041,110.1897 35.8791,110.1897 C37.1541,110.1897 38.3351,110.4437 39.4211,110.9517 C40.5081,111.4597 41.4591,112.1497 42.2741,113.0237 C43.0881,113.8987 43.7251,114.9147 44.1861,116.0707 C44.6471,117.2277 44.8761,118.4557 44.8761,119.7547 C44.8761,121.0297 44.6471,122.2467 44.1861,123.4037 C43.7251,124.5597 43.0941,125.5767 42.2901,126.4497 C41.4881,127.3237 40.5381,128.0137 39.4401,128.5217 C38.3411,129.0297 37.1541,129.2837 35.8791,129.2837 M28.6521,119.8257 C28.6521,120.9117 28.8401,121.9327 29.2191,122.8897 C29.5961,123.8467 30.1101,124.6787 30.7601,125.3877 C31.4101,126.0957 32.1711,126.6567 33.0451,127.0697 C33.9191,127.4827 34.8521,127.6897 35.8441,127.6897 C36.8351,127.6897 37.7691,127.4827 38.6411,127.0697 C39.5151,126.6567 40.2831,126.0837 40.9451,125.3517 C41.6051,124.6197 42.1251,123.7747 42.5041,122.8187 C42.8801,121.8627 43.0691,120.8307 43.0691,119.7197 C43.0691,118.6337 42.8801,117.6117 42.5041,116.6547 C42.1251,115.6987 41.6051,114.8597 40.9451,114.1397 C40.2831,113.4197 39.5221,112.8467 38.6601,112.4217 C37.7971,111.9967 36.8711,111.7837 35.8791,111.7837 C34.8871,111.7837 33.9551,111.9967 33.0811,112.4217 C32.2061,112.8467 31.4451,113.4257 30.7961,114.1577 C30.1471,114.8897 29.6261,115.7457 29.2371,116.7257 C28.8461,117.7057 28.6521,118.7387 28.6521,119.8257" id="Fill-5" fill="#FFFFFF"></path>
            <path d="M75.944,128.9292 L74.173,128.9292 L74.173,118.6572 C74.173,116.3192 73.813,114.5952 73.092,113.4852 C72.371,112.3742 71.268,111.8202 69.779,111.8202 C69.024,111.8202 68.303,111.9612 67.619,112.2442 C66.934,112.5282 66.308,112.9232 65.741,113.4312 C65.175,113.9402 64.685,114.5412 64.272,115.2382 C63.858,115.9352 63.533,116.7082 63.297,117.5582 L63.297,128.9292 L61.526,128.9292 L61.526,118.6572 C61.526,116.2942 61.171,114.5652 60.464,113.4662 C59.755,112.3682 58.657,111.8202 57.169,111.8202 C56.412,111.8202 55.699,111.9552 55.026,112.2272 C54.353,112.4982 53.733,112.8882 53.166,113.3962 C52.598,113.9042 52.097,114.5062 51.659,115.2022 C51.222,115.8992 50.886,116.6722 50.651,117.5232 L50.651,128.9292 L48.88,128.9292 L48.88,110.5082 L50.545,110.5082 L50.545,114.9022 C51.299,113.4132 52.292,112.2572 53.52,111.4302 C54.747,110.6032 56.106,110.1902 57.594,110.1902 C59.152,110.1902 60.416,110.6512 61.384,111.5722 C62.352,112.4922 62.93,113.6972 63.12,115.1852 C64.867,111.8552 67.276,110.1902 70.347,110.1902 C72.354,110.1902 73.789,110.9062 74.651,112.3332 C75.513,113.7622 75.944,115.7632 75.944,118.3372 L75.944,128.9292 Z" id="Fill-7" fill="#FFFFFF"></path>
            <path d="M90.0431,129.2837 C88.4601,129.2837 87.0501,128.8647 85.8091,128.0257 C84.5691,127.1877 83.5711,126.1667 82.8151,124.9627 L82.8151,136.4747 L81.0441,136.4747 L81.0441,110.5097 L82.6741,110.5097 L82.6741,114.1927 C83.4301,113.0127 84.4281,112.0497 85.6671,111.3057 C86.9071,110.5617 88.2361,110.1897 89.6521,110.1897 C90.9281,110.1897 92.1081,110.4617 93.1951,111.0057 C94.2811,111.5487 95.2141,112.2617 95.9931,113.1477 C96.7721,114.0337 97.3811,115.0547 97.8181,116.2127 C98.2541,117.3697 98.4731,118.5507 98.4731,119.7547 C98.4731,121.0287 98.2721,122.2467 97.8721,123.4037 C97.4681,124.5607 96.8971,125.5767 96.1541,126.4497 C95.4091,127.3237 94.5171,128.0137 93.4781,128.5217 C92.4391,129.0287 91.2941,129.2837 90.0431,129.2837 M89.6171,127.6897 C90.6801,127.6897 91.6481,127.4647 92.5221,127.0157 C93.3961,126.5677 94.1401,125.9717 94.7541,125.2277 C95.3681,124.4837 95.8401,123.6337 96.1701,122.6777 C96.5011,121.7217 96.6671,120.7457 96.6671,119.7547 C96.6671,118.6907 96.4781,117.6817 96.1001,116.7247 C95.7221,115.7687 95.1961,114.9257 94.5231,114.1927 C93.8501,113.4617 93.0651,112.8767 92.1681,112.4397 C91.2701,112.0027 90.3141,111.7847 89.2981,111.7847 C88.6611,111.7847 87.9811,111.9217 87.2611,112.1917 C86.5411,112.4637 85.8631,112.8287 85.2241,113.2897 C84.5881,113.7507 84.0431,114.2757 83.5951,114.8657 C83.1461,115.4567 82.8861,116.0827 82.8151,116.7437 L82.8151,122.8017 C83.1221,123.4867 83.5121,124.1237 83.9841,124.7147 C84.4571,125.3047 84.9881,125.8237 85.5791,126.2727 C86.1691,126.7207 86.8071,127.0697 87.4921,127.3177 C88.1761,127.5657 88.8851,127.6897 89.6171,127.6897" id="Fill-9" fill="#FFFFFF"></path>
            <path d="M102.6535,103.0698 L104.4605,103.0698 L104.4605,125.2808 C104.4605,125.9658 104.6545,126.5078 105.0445,126.9108 C105.4345,127.3118 105.9715,127.5118 106.6565,127.5118 C106.9165,127.5118 107.2275,127.4838 107.5945,127.4238 C107.9615,127.3648 108.2975,127.2768 108.6045,127.1578 L108.9585,128.5748 C108.5575,128.7408 108.0615,128.8778 107.4705,128.9818 C106.8805,129.0888 106.3725,129.1418 105.9475,129.1418 C104.9555,129.1418 104.1585,128.8408 103.5565,128.2388 C102.9545,127.6358 102.6535,126.8288 102.6535,125.8118 L102.6535,103.0698 Z" id="Fill-11" fill="#FFFFFF"></path>
            <path d="M111.474,106.33 L113.245,106.33 L113.245,103.07 L111.474,103.07 L111.474,106.33 Z M111.474,128.929 L113.245,128.929 L113.245,110.509 L111.474,110.509 L111.474,128.929 Z" id="Fill-13" fill="#FFFFFF"></path>
            <path d="M123.1281,129.2837 C122.2771,129.2837 121.4861,129.1367 120.7551,128.8407 C120.0221,128.5457 119.3781,128.1437 118.8241,127.6367 C118.2691,127.1287 117.8371,126.5277 117.5301,125.8297 C117.2251,125.1347 117.0701,124.3837 117.0701,123.5817 C117.0701,122.7767 117.2591,122.0457 117.6381,121.3847 C118.0151,120.7227 118.5411,120.1497 119.2131,119.6657 C119.8871,119.1827 120.6951,118.8047 121.6401,118.5327 C122.5841,118.2607 123.6241,118.1247 124.7571,118.1247 C125.7501,118.1247 126.7471,118.2137 127.7501,118.3897 C128.7541,118.5677 129.6571,118.8107 130.4611,119.1167 L130.4611,117.3097 C130.4611,115.5627 129.9641,114.1757 128.9731,113.1477 C127.9811,112.1207 126.6351,111.6077 124.9351,111.6077 C124.0371,111.6077 123.0871,111.7957 122.0821,112.1737 C121.0791,112.5527 120.0591,113.0947 119.0201,113.8037 L118.3451,112.5987 C120.7071,110.9937 122.9501,110.1897 125.0761,110.1897 C127.2961,110.1897 129.0431,110.8337 130.3181,112.1207 C131.5941,113.4087 132.2321,115.1847 132.2321,117.4517 L132.2321,126.4507 C132.2321,127.0407 132.4911,127.3357 133.0121,127.3357 L133.0121,128.9297 C132.8931,128.9527 132.7691,128.9707 132.6401,128.9827 C132.5091,128.9947 132.3971,129.0007 132.3041,129.0007 C131.8301,129.0007 131.4531,128.8407 131.1691,128.5217 C130.8861,128.2037 130.7201,127.8197 130.6741,127.3707 L130.6741,125.8467 C129.8221,126.9577 128.7361,127.8067 127.4141,128.3977 C126.0911,128.9887 124.6621,129.2837 123.1281,129.2837 M123.4821,127.8667 C124.8521,127.8667 126.1091,127.6067 127.2541,127.0877 C128.3991,126.5687 129.2791,125.8837 129.8951,125.0327 C130.2721,124.5367 130.4611,124.0647 130.4611,123.6157 L130.4611,120.3567 C129.6111,120.0257 128.7251,119.7777 127.8051,119.6127 C126.8831,119.4477 125.9261,119.3647 124.9351,119.3647 C124.0131,119.3647 123.1751,119.4667 122.4191,119.6657 C121.6631,119.8667 121.0141,120.1437 120.4711,120.4987 C119.9281,120.8527 119.5081,121.2847 119.2131,121.7917 C118.9181,122.3007 118.7711,122.8597 118.7711,123.4737 C118.7711,124.0887 118.8891,124.6667 119.1241,125.2097 C119.3601,125.7547 119.6911,126.2197 120.1161,126.6087 C120.5421,126.9987 121.0431,127.3067 121.6221,127.5297 C122.2001,127.7557 122.8201,127.8667 123.4821,127.8667" id="Fill-15" fill="#FFFFFF"></path>
            <path d="M152.4582,128.9292 L150.6872,128.9292 L150.6872,118.6572 C150.6872,116.2712 150.3512,114.5352 149.6792,113.4492 C149.0042,112.3632 147.9362,111.8202 146.4722,111.8202 C145.6922,111.8202 144.9192,111.9612 144.1522,112.2442 C143.3842,112.5282 142.6692,112.9292 142.0082,113.4492 C141.3472,113.9682 140.7682,114.5762 140.2722,115.2732 C139.7762,115.9702 139.4102,116.7212 139.1742,117.5232 L139.1742,128.9292 L137.4022,128.9292 L137.4022,110.5082 L139.0682,110.5082 L139.0682,114.9022 C139.4452,114.1932 139.9122,113.5492 140.4672,112.9712 C141.0212,112.3922 141.6472,111.8962 142.3462,111.4832 C143.0412,111.0712 143.7802,110.7502 144.5602,110.5272 C145.3392,110.3022 146.1412,110.1902 146.9682,110.1902 C148.9752,110.1902 150.3922,110.8922 151.2182,112.2972 C152.0452,113.7022 152.4582,115.7162 152.4582,118.3372 L152.4582,128.9292 Z" id="Fill-16" fill="#FFFFFF"></path>
            <path d="M156.3195,119.6489 C156.3195,118.3499 156.5445,117.1219 156.9925,115.9639 C157.4415,114.8069 158.0655,113.8029 158.8705,112.9529 C159.6725,112.1029 160.6295,111.4289 161.7395,110.9339 C162.8485,110.4379 164.0655,110.1899 165.3875,110.1899 C167.0645,110.1899 168.5415,110.5669 169.8155,111.3239 C171.0905,112.0799 172.0485,113.1299 172.6855,114.4759 L170.9495,115.0429 C170.4055,114.0279 169.6325,113.2309 168.6295,112.6529 C167.6245,112.0739 166.5215,111.7849 165.3175,111.7849 C164.3015,111.7849 163.3555,111.9849 162.4835,112.3859 C161.6095,112.7889 160.8475,113.3429 160.1985,114.0509 C159.5485,114.7589 159.0355,115.5919 158.6575,116.5489 C158.2795,117.5039 158.0905,118.5389 158.0905,119.6489 C158.0905,120.7579 158.2855,121.8029 158.6745,122.7839 C159.0645,123.7639 159.5835,124.6139 160.2345,125.3339 C160.8825,126.0539 161.6505,126.6279 162.5365,127.0509 C163.4225,127.4769 164.3605,127.6899 165.3525,127.6899 C165.9905,127.6899 166.6225,127.5949 167.2485,127.4069 C167.8725,127.2159 168.4525,126.9679 168.9835,126.6629 C169.5145,126.3559 169.9755,125.9959 170.3655,125.5819 C170.7555,125.1699 171.0205,124.7379 171.1625,124.2899 L172.8975,124.7859 C172.6605,125.4209 172.3005,126.0189 171.8175,126.5739 C171.3335,127.1289 170.7605,127.6069 170.0995,128.0089 C169.4375,128.4109 168.7065,128.7229 167.9035,128.9469 C167.0995,129.1719 166.2735,129.2839 165.4235,129.2839 C164.1245,129.2839 162.9205,129.0289 161.8095,128.5229 C160.7005,128.0149 159.7375,127.3179 158.9235,126.4319 C158.1085,125.5449 157.4705,124.5259 157.0095,123.3679 C156.5495,122.2119 156.3195,120.9709 156.3195,119.6489" id="Fill-17" fill="#FFFFFF"></path>
            <path d="M184.34,129.2837 C183.041,129.2837 181.836,129.0297 180.726,128.5217 C179.616,128.0137 178.654,127.3177 177.84,126.4317 C177.026,125.5467 176.388,124.5247 175.926,123.3677 C175.467,122.2117 175.236,120.9707 175.236,119.6477 C175.236,118.3487 175.467,117.1287 175.926,115.9817 C176.388,114.8367 177.02,113.8327 177.822,112.9707 C178.625,112.1087 179.574,111.4297 180.674,110.9337 C181.772,110.4377 182.959,110.1897 184.234,110.1897 C185.531,110.1897 186.737,110.4437 187.847,110.9527 C188.957,111.4597 189.912,112.1437 190.717,113.0067 C191.519,113.8677 192.146,114.8717 192.594,116.0167 C193.042,117.1627 193.267,118.3737 193.267,119.6477 L193.267,120.0917 C193.267,120.2677 193.255,120.3817 193.231,120.4277 L177.077,120.4277 C177.15,121.4917 177.397,122.4757 177.822,123.3857 C178.247,124.2947 178.784,125.0797 179.434,125.7407 C180.083,126.4037 180.833,126.9227 181.684,127.3007 C182.533,127.6787 183.442,127.8667 184.411,127.8667 C185.049,127.8667 185.675,127.7777 186.288,127.6007 C186.903,127.4237 187.476,127.1827 188.007,126.8747 C188.538,126.5687 189.009,126.1967 189.424,125.7597 C189.836,125.3217 190.16,124.8457 190.398,124.3237 L191.956,124.7497 C191.696,125.4107 191.312,126.0187 190.805,126.5747 C190.296,127.1287 189.706,127.6067 189.034,128.0097 C188.361,128.4107 187.622,128.7227 186.819,128.9467 C186.016,129.1717 185.191,129.2837 184.34,129.2837 L184.34,129.2837 Z M191.567,119.0107 C191.496,117.9247 191.254,116.9327 190.841,116.0357 C190.427,115.1377 189.896,114.3637 189.246,113.7147 C188.596,113.0647 187.847,112.5567 186.996,112.1907 C186.147,111.8257 185.236,111.6417 184.27,111.6417 C183.301,111.6417 182.392,111.8257 181.542,112.1907 C180.692,112.5567 179.942,113.0647 179.291,113.7147 C178.642,114.3637 178.123,115.1427 177.733,116.0527 C177.344,116.9617 177.113,117.9477 177.043,119.0107 L191.567,119.0107 Z" id="Fill-18" fill="#FFFFFF"></path>
            <polygon id="Fill-19" fill="#FFFFFF" points="196.527 128.929 198.086 128.929 198.086 125.918 196.527 125.918"></polygon>
            <path d="M207.507,129.2837 C206.656,129.2837 205.865,129.1367 205.134,128.8407 C204.401,128.5457 203.757,128.1437 203.203,127.6367 C202.648,127.1287 202.216,126.5277 201.909,125.8297 C201.604,125.1347 201.448,124.3837 201.448,123.5817 C201.448,122.7767 201.638,122.0457 202.017,121.3847 C202.394,120.7227 202.92,120.1497 203.592,119.6657 C204.266,119.1827 205.074,118.8047 206.019,118.5327 C206.963,118.2607 208.003,118.1247 209.136,118.1247 C210.129,118.1247 211.125,118.2137 212.129,118.3897 C213.133,118.5677 214.036,118.8107 214.84,119.1167 L214.84,117.3097 C214.84,115.5627 214.343,114.1757 213.352,113.1477 C212.36,112.1207 211.014,111.6077 209.314,111.6077 C208.415,111.6077 207.466,111.7957 206.461,112.1737 C205.458,112.5527 204.438,113.0947 203.399,113.8037 L202.724,112.5987 C205.086,110.9937 207.329,110.1897 209.455,110.1897 C211.675,110.1897 213.422,110.8337 214.697,112.1207 C215.973,113.4087 216.611,115.1847 216.611,117.4517 L216.611,126.4507 C216.611,127.0407 216.87,127.3357 217.391,127.3357 L217.391,128.9297 C217.272,128.9527 217.148,128.9707 217.019,128.9827 C216.888,128.9947 216.776,129.0007 216.683,129.0007 C216.209,129.0007 215.832,128.8407 215.548,128.5217 C215.265,128.2037 215.099,127.8197 215.053,127.3707 L215.053,125.8467 C214.201,126.9577 213.115,127.8067 211.793,128.3977 C210.47,128.9887 209.041,129.2837 207.507,129.2837 M207.861,127.8667 C209.231,127.8667 210.488,127.6067 211.633,127.0877 C212.778,126.5687 213.658,125.8837 214.274,125.0327 C214.651,124.5367 214.84,124.0647 214.84,123.6157 L214.84,120.3567 C213.99,120.0257 213.104,119.7777 212.184,119.6127 C211.262,119.4477 210.305,119.3647 209.314,119.3647 C208.392,119.3647 207.554,119.4667 206.798,119.6657 C206.042,119.8667 205.393,120.1437 204.85,120.4987 C204.307,120.8527 203.887,121.2847 203.592,121.7917 C203.297,122.3007 203.15,122.8597 203.15,123.4737 C203.15,124.0887 203.268,124.6667 203.503,125.2097 C203.739,125.7547 204.07,126.2197 204.495,126.6087 C204.921,126.9987 205.422,127.3067 206.001,127.5297 C206.579,127.7557 207.199,127.8667 207.861,127.8667" id="Fill-20" fill="#FFFFFF"></path>
            <path d="M221.782,106.33 L223.553,106.33 L223.553,103.07 L221.782,103.07 L221.782,106.33 Z M221.782,128.929 L223.553,128.929 L223.553,110.509 L221.782,110.509 L221.782,128.929 Z" id="Fill-21" fill="#FFFFFF"></path>
            <g id="Group" transform="translate(78.000000, 19.000000)" fill="#5798D2">
                <polygon id="Fill-1" points="21.4569833 0.354450452 0.700721875 29.8180418 21.4569833 59.2847495 62.9702851 59.2847495 58.3548393 52.732437 26.0724291 52.732437 9.93161354 29.8180418 26.0724291 6.90520477 58.3556184 6.90520477 62.9702851 0.354450452"></polygon>
                <polygon id="Fill-2" points="58.3539044 52.7327487 74.4962781 29.8183534 58.3546835 6.9047373 42.2130888 29.8183534"></polygon>
            </g>
        </g>
    </g>
</svg>