<?xml version="1.0" encoding="UTF-8" standalone="no"?>
<svg width="404px" height="53px" viewBox="0 0 404 53" version="1.1" xmlns="http://www.w3.org/2000/svg" xmlns:xlink="http://www.w3.org/1999/xlink">
    <!-- Generator: Sketch 41 (35326) - http://www.bohemiancoding.com/sketch -->
    <title>LOGO Copy</title>
    <desc>Created with Sketch.</desc>
    <defs></defs>
    <g id="home" stroke="none" stroke-width="1" fill="none" fill-rule="evenodd">
        <g id="LOGO-Copy">
            <g id="Group" transform="translate(72.000000, 1.000000)" fill="#FFFFFF">
                <g id="Page-1">
                    <g id="Group-20" transform="translate(0.276753, 0.000000)">
                        <path d="M0.219483395,24.9737269 C0.219483395,23.0253875 0.55601476,21.183321 1.22907749,19.4475277 C1.90214022,17.7117343 2.83940959,16.2061993 4.04531365,14.9294465 C5.24826568,13.6556458 6.68442804,12.6445756 8.34937269,11.9021402 C10.0143173,11.1582288 11.8386716,10.7862731 13.8224354,10.7862731 C16.3375646,10.7862731 18.5515867,11.3515867 20.4645018,12.4866421 C22.377417,13.6202214 23.8121033,15.1966052 24.7685609,17.2143173 L22.1648708,18.0645018 C21.3486347,16.5427306 20.1899631,15.3471587 18.684428,14.479262 C17.177417,13.6113653 15.5228044,13.177417 13.7161624,13.177417 C12.1929151,13.177417 10.7744649,13.478524 9.46523985,14.080738 C8.15453875,14.682952 7.01210332,15.5154244 6.03793358,16.578155 C5.06228782,17.6394096 4.29328413,18.8895941 3.72649446,20.3242804 C3.1597048,21.7574908 2.87630996,23.3087823 2.87630996,24.9737269 C2.87630996,26.6386716 3.16856089,28.2061993 3.75306273,29.67631 C4.33756458,31.1464207 5.11542435,32.4216974 6.09254613,33.5006642 C7.06523985,34.582583 8.21653137,35.4416236 9.54494465,36.077786 C10.8733579,36.7169004 12.281476,37.0357196 13.7692989,37.0357196 C14.7257565,37.0357196 15.6733579,36.8940221 16.6121033,36.6106273 C17.5493727,36.3257565 18.4187454,35.9538007 19.2157934,35.4947601 C20.0128413,35.0342435 20.7036162,34.4940221 21.2881181,33.8726199 C21.8726199,33.2541697 22.2711439,32.6076753 22.48369,31.9346125 L25.0873801,32.678524 C24.7316605,33.6335055 24.1914391,34.5294465 23.4667159,35.3619188 C22.7405166,36.1943911 21.881476,36.9117343 20.8895941,37.5139483 C19.8977122,38.1161624 18.7995572,38.5855351 17.5951292,38.9205904 C16.3907011,39.2585978 15.1508487,39.4268635 13.875572,39.4268635 C11.9272325,39.4268635 10.1205904,39.0445756 8.45564576,38.284428 C6.79070111,37.5228044 5.34715867,36.477786 4.12501845,35.1493727 C2.90287823,33.8194834 1.94642066,32.2888561 1.25564576,30.5515867 C0.564870849,28.8172694 0.219483395,26.9574908 0.219483395,24.9737269 Z" id="Fill-1"></path>
                        <path d="M31.198524,25.2389668 C31.198524,26.8684871 31.4804428,28.4005904 32.0487085,29.8352768 C32.6140221,31.2699631 33.3845018,32.5186716 34.3601476,33.5814022 C35.3343173,34.6441328 36.4752768,35.4854613 37.7874539,36.1053875 C39.098155,36.7253137 40.497417,37.0352768 41.9852399,37.0352768 C43.4715867,37.0352768 44.8723247,36.7253137 46.1815498,36.1053875 C47.4922509,35.4854613 48.6435424,34.6264207 49.6369004,33.5282657 C50.6273063,32.4301107 51.4066421,31.16369 51.9749077,29.7290037 C52.5402214,28.2943173 52.8236162,26.7459779 52.8236162,25.0795572 C52.8236162,23.4500369 52.5402214,21.9179336 51.9749077,20.4832472 C51.4066421,19.0485609 50.6273063,17.7909963 49.6369004,16.7105535 C48.6435424,15.6301107 47.502583,14.7710701 46.2095941,14.1334317 C44.9151292,13.4957934 43.5261993,13.1769742 42.0383764,13.1769742 C40.5505535,13.1769742 39.1512915,13.4957934 37.8405904,14.1334317 C36.5284133,14.7710701 35.3874539,15.6389668 34.4132841,16.7371218 C33.4391144,17.8352768 32.6583026,19.1194096 32.0752768,20.5895203 C31.4892989,22.059631 31.198524,23.6094465 31.198524,25.2389668 M42.0383764,39.4264207 C40.0885609,39.4264207 38.2922509,39.0456089 36.6435424,38.2839852 C34.997786,37.5223616 33.5704797,36.4861993 32.3675277,35.1754982 C31.1630996,33.8662731 30.2243542,32.3415498 29.5512915,30.6057565 C28.8782288,28.8699631 28.5416974,27.0456089 28.5416974,25.1326937 C28.5416974,23.1843542 28.8870849,21.3422878 29.5763838,19.6064945 C30.2686347,17.8721771 31.2162362,16.3489299 32.4206642,15.0367528 C33.6250923,13.7260517 35.0494465,12.6898893 36.698155,11.9282657 C38.3453875,11.1666421 40.1254613,10.7858303 42.0383764,10.7858303 C43.9512915,10.7858303 45.7225092,11.1666421 47.3505535,11.9282657 C48.9815498,12.6898893 50.4073801,13.7260517 51.6295203,15.0367528 C52.8516605,16.3489299 53.8066421,17.8721771 54.498893,19.6064945 C55.1896679,21.3422878 55.5335793,23.1843542 55.5335793,25.1326937 C55.5335793,27.0456089 55.1896679,28.8699631 54.498893,30.6057565 C53.8066421,32.3415498 52.8605166,33.8662731 51.6546125,35.1754982 C50.4516605,36.4861993 49.0258303,37.5223616 47.3785978,38.2839852 C45.7313653,39.0456089 43.9512915,39.4264207 42.0383764,39.4264207" id="Fill-3"></path>
                        <path d="M102.135203,38.8949077 L99.4783764,38.8949077 L99.4783764,23.4853137 C99.4783764,19.9783026 98.938155,17.3938007 97.8577122,15.7273801 C96.7757934,14.0624354 95.1211808,13.2299631 92.8879705,13.2299631 C91.7558672,13.2299631 90.6739483,13.4425092 89.6481181,13.8676015 C88.6208118,14.2926937 87.6820664,14.8860517 86.8318819,15.6476753 C85.9816974,16.4107749 85.2466421,17.3126199 84.6267159,18.3576384 C84.0067897,19.4026568 83.5197048,20.5628044 83.1639852,21.8380812 L83.1639852,38.8949077 L80.5086347,38.8949077 L80.5086347,23.4853137 C80.5086347,19.9428782 79.9757934,17.3480443 78.9145387,15.7008118 C77.8518081,14.0535793 76.2045756,13.2299631 73.9728413,13.2299631 C72.837786,13.2299631 71.7676753,13.4336531 70.7580812,13.8410332 C69.7484871,14.2484133 68.8185978,14.8329151 67.9684133,15.5945387 C67.1167528,16.3561624 66.3654613,17.2609594 65.7086347,18.3045018 C65.0532841,19.3495203 64.5484871,20.5096679 64.1957196,21.7849446 L64.1957196,38.8949077 L61.538893,38.8949077 L61.538893,11.2639114 L64.03631,11.2639114 L64.03631,17.8528413 C65.1684133,15.621107 66.6577122,13.8867897 68.4997786,12.6454613 C70.340369,11.4056089 72.3787454,10.7856827 74.6104797,10.7856827 C76.9484871,10.7856827 78.84369,11.4764576 80.2960886,12.8580074 C81.7470111,14.2395572 82.6149077,16.0461993 82.8997786,18.2779336 C85.5197048,13.2830996 89.1329889,10.7856827 93.739631,10.7856827 C96.7507011,10.7856827 98.9027306,11.8587454 100.19572,14.0004428 C101.488708,16.1436162 102.135203,19.1458303 102.135203,23.0070849 L102.135203,38.8949077 Z" id="Fill-5"></path>
                        <path d="M122.645166,37.0354244 C124.239262,37.0354244 125.691661,36.697417 127.002362,36.0243542 C128.313063,35.3527675 129.42893,34.4583026 130.351439,33.3424354 C131.270996,32.2265683 131.979483,30.9512915 132.475424,29.5166052 C132.971365,28.0819188 133.219336,26.6191882 133.219336,25.1328413 C133.219336,23.5372694 132.935941,22.0243542 132.369151,20.5881919 C131.802362,19.1549815 131.01417,17.8885609 130.004576,16.7904059 C128.994982,15.6922509 127.817122,14.8154982 126.470996,14.1601476 C125.124871,13.504797 123.690185,13.1771218 122.166937,13.1771218 C121.21048,13.1771218 120.19203,13.3822878 119.111587,13.7881919 C118.031144,14.195572 117.01417,14.7431734 116.056236,15.4354244 C115.101255,16.1261993 114.285018,16.9143911 113.611956,17.8 C112.938893,18.6856089 112.549225,19.6243542 112.442952,20.6162362 L112.442952,29.702583 C112.901993,30.7313653 113.48797,31.6863469 114.196458,32.5719557 C114.904945,33.4575646 115.701993,34.2369004 116.587601,34.9099631 C117.47321,35.5830258 118.429668,36.1055351 119.456974,36.4774908 C120.48428,36.8494465 121.547011,37.0354244 122.645166,37.0354244 M123.28428,39.4265683 C120.909373,39.4265683 118.794244,38.797786 116.932989,37.5402214 C115.07321,36.2826568 113.576531,34.7505535 112.442952,32.9439114 L112.442952,50.2132841 L109.786125,50.2132841 L109.786125,11.2642066 L112.230406,11.2642066 L112.230406,16.7904059 C113.363985,15.0191882 114.86214,13.5741697 116.720443,12.4597786 C118.580221,11.3439114 120.574317,10.7859779 122.698303,10.7859779 C124.611218,10.7859779 126.382435,11.1933579 128.011956,12.0081181 C129.641476,12.8228782 131.040738,13.8929889 132.209742,15.2228782 C133.378745,16.5512915 134.290923,18.0833948 134.946273,19.8191882 C135.601624,21.5549815 135.929299,23.3261993 135.929299,25.1328413 C135.929299,27.0442804 135.628192,28.8701107 135.027454,30.6059041 C134.422288,32.3416974 133.564723,33.8664207 132.450332,35.1756458 C131.332989,36.4863469 129.99572,37.5225092 128.437048,38.2841328 C126.878376,39.0442804 125.160295,39.4265683 123.28428,39.4265683" id="Fill-7"></path>
                        <path d="M142.19941,0.104797048 L144.909373,0.104797048 L144.909373,33.4214022 C144.909373,34.4501845 145.201624,35.2634686 145.786125,35.8671587 C146.370627,36.4693727 147.176531,36.7690037 148.203838,36.7690037 C148.593506,36.7690037 149.061402,36.7261993 149.611956,36.6361624 C150.161033,36.5476015 150.66583,36.4162362 151.126347,36.2376384 L151.657712,38.3630996 C151.055498,38.6125461 150.311587,38.8162362 149.425978,38.9741697 C148.540369,39.1335793 147.778745,39.2132841 147.141107,39.2132841 C145.653284,39.2132841 144.457712,38.7616236 143.554391,37.8583026 C142.65107,36.9549815 142.19941,35.7431734 142.19941,34.2184502 L142.19941,0.104797048 Z" id="Fill-9"></path>
                        <path d="M155.430996,38.895203 L158.087823,38.895203 L158.087823,11.2642066 L155.430996,11.2642066 L155.430996,38.895203 Z M155.430996,4.99557196 L158.087823,4.99557196 L158.087823,0.105535055 L155.430996,0.105535055 L155.430996,4.99557196 Z" id="Fill-11"></path>
                        <path d="M173.442214,37.3006642 C175.496827,37.3006642 177.383173,36.9109963 179.101255,36.1316605 C180.819336,35.3538007 182.138893,34.3250185 183.061402,33.0497417 C183.626716,32.3058303 183.911587,31.5988192 183.911587,30.9242804 L183.911587,26.0357196 C182.63631,25.5397786 181.306421,25.1678229 179.926347,24.9198524 C178.543321,24.6718819 177.108635,24.5478967 175.622288,24.5478967 C174.239262,24.5478967 172.981697,24.6999262 171.848118,24.9995572 C170.714539,25.3006642 169.740369,25.7169004 168.925609,26.2482657 C168.110849,26.779631 167.482066,27.4276015 167.039262,28.1877491 C166.596458,28.9508487 166.375055,29.7907011 166.375055,30.7117343 C166.375055,31.6327675 166.552177,32.5006642 166.906421,33.3154244 C167.260664,34.1316605 167.756605,34.8298155 168.394244,35.4143173 C169.033358,35.9988192 169.784649,36.4608118 170.652546,36.7958672 C171.520443,37.1338745 172.450332,37.3006642 173.442214,37.3006642 M172.912325,39.4261255 C171.635572,39.4261255 170.448856,39.2047232 169.352177,38.7619188 C168.252546,38.3191144 167.287232,37.7169004 166.456236,36.9552768 C165.622288,36.1936531 164.975793,35.2918081 164.515277,34.2453137 C164.056236,33.2017712 163.824502,32.075572 163.824502,30.8726199 C163.824502,29.6667159 164.107897,28.5685609 164.676162,27.576679 C165.241476,26.584797 166.031144,25.7257565 167.039262,24.9995572 C168.050332,24.2748339 169.26214,23.7065683 170.679114,23.2991882 C172.096089,22.8918081 173.656236,22.6881181 175.355129,22.6881181 C176.844428,22.6881181 178.339631,22.8209594 179.845166,23.0866421 C181.350701,23.3523247 182.705683,23.7169004 183.911587,24.175941 L183.911587,21.4659779 C183.911587,18.8445756 183.166199,16.7633948 181.678376,15.2224354 C180.190554,13.681476 178.171365,12.9124723 175.622288,12.9124723 C174.274686,12.9124723 172.850332,13.1943911 171.343321,13.7611808 C169.837786,14.3294465 168.307159,15.1427306 166.748487,16.2054613 L165.737417,14.3988192 C169.279852,11.9914391 172.645166,10.7855351 175.833358,10.7855351 C179.163247,10.7855351 181.784649,11.7508487 183.697565,13.681476 C185.61048,15.6135793 186.568413,18.277786 186.568413,21.678524 L186.568413,35.176679 C186.568413,36.0608118 186.956605,36.5036162 187.737417,36.5036162 L187.737417,38.8947601 C187.558819,38.9301845 187.372841,38.9567528 187.179483,38.9744649 C186.983173,38.9921771 186.814908,39.0010332 186.674686,39.0010332 C185.964723,39.0010332 185.39941,38.7619188 184.972841,38.28369 C184.547749,37.8054613 184.299779,37.2298155 184.230406,36.5567528 L184.230406,34.2718819 C182.953653,35.9368266 181.324133,37.2121033 179.340369,38.0977122 C177.356605,38.983321 175.213432,39.4261255 172.912325,39.4261255" id="Fill-13"></path>
                        <path d="M216.906863,38.8949077 L214.250037,38.8949077 L214.250037,23.4853137 C214.250037,19.9074539 213.74524,17.3037638 212.737122,15.6742435 C211.726052,14.0447232 210.1231,13.2299631 207.92679,13.2299631 C206.757786,13.2299631 205.597638,13.4425092 204.447823,13.8676015 C203.295055,14.2926937 202.223469,14.8949077 201.231587,15.6742435 C200.239705,16.4535793 199.371808,17.3657565 198.627897,18.4107749 C197.883985,19.4557934 197.334908,20.5819926 196.980664,21.7849446 L196.980664,38.8949077 L194.323838,38.8949077 L194.323838,11.2639114 L196.822731,11.2639114 L196.822731,17.8528413 C197.388044,16.7901107 198.087675,15.824797 198.920148,14.9569004 C199.75262,14.0890037 200.691365,13.3450923 201.73786,12.7251661 C202.781402,12.1067159 203.889889,11.6270111 205.058893,11.2904797 C206.227897,10.9539483 207.430849,10.7856827 208.670701,10.7856827 C211.681771,10.7856827 213.807232,11.8395572 215.047085,13.9473063 C216.286937,16.0550554 216.906863,19.0749815 216.906863,23.0070849 L216.906863,38.8949077 Z" id="Fill-14"></path>
                        <path d="M222.69845,24.9737269 C222.69845,23.0253875 223.034982,21.183321 223.708044,19.4475277 C224.381107,17.7117343 225.318376,16.2061993 226.52428,14.9294465 C227.727232,13.6556458 229.163395,12.6445756 230.828339,11.9021402 C232.493284,11.1582288 234.317638,10.7862731 236.301402,10.7862731 C238.816531,10.7862731 241.030554,11.3515867 242.943469,12.4866421 C244.856384,13.6202214 246.29107,15.1966052 247.247528,17.2143173 L244.643838,18.0645018 C243.827601,16.5427306 242.66893,15.3471587 241.163395,14.479262 C239.656384,13.6113653 238.001771,13.177417 236.195129,13.177417 C234.671882,13.177417 233.253432,13.478524 231.944207,14.080738 C230.633506,14.682952 229.49107,15.5154244 228.5169,16.578155 C227.541255,17.6394096 226.772251,18.8895941 226.205461,20.3242804 C225.638672,21.7574908 225.355277,23.3087823 225.355277,24.9737269 C225.355277,26.6386716 225.647528,28.2061993 226.23203,29.67631 C226.816531,31.1464207 227.594391,32.4216974 228.571513,33.5006642 C229.544207,34.582583 230.695498,35.4416236 232.023911,36.077786 C233.352325,36.7169004 234.760443,37.0357196 236.248266,37.0357196 C237.204723,37.0357196 238.152325,36.8940221 239.09107,36.6106273 C240.028339,36.3257565 240.897712,35.9538007 241.69476,35.4947601 C242.491808,35.0342435 243.182583,34.4940221 243.767085,33.8726199 C244.351587,33.2541697 244.750111,32.6076753 244.962657,31.9346125 L247.566347,32.678524 C247.210627,33.6335055 246.670406,34.5294465 245.945683,35.3619188 C245.219483,36.1943911 244.360443,36.9117343 243.368561,37.5139483 C242.376679,38.1161624 241.278524,38.5855351 240.074096,38.9205904 C238.869668,39.2585978 237.629815,39.4268635 236.354539,39.4268635 C234.406199,39.4268635 232.599557,39.0445756 230.934613,38.284428 C229.269668,37.5228044 227.826125,36.477786 226.603985,35.1493727 C225.381845,33.8194834 224.425387,32.2888561 223.734613,30.5515867 C223.043838,28.8172694 222.69845,26.9574908 222.69845,24.9737269" id="Fill-15"></path>
                        <path d="M275.569742,24.0165314 C275.463469,22.3870111 275.100369,20.9006642 274.480443,19.5545387 C273.860517,18.2069373 273.063469,17.0467897 272.089299,16.0726199 C271.113653,15.0984502 269.990406,14.3368266 268.713653,13.7877491 C267.439852,13.2386716 266.074539,12.9641328 264.623616,12.9641328 C263.171218,12.9641328 261.80738,13.2386716 260.532103,13.7877491 C259.256827,14.3368266 258.132103,15.0984502 257.156458,16.0726199 C256.182288,17.0467897 255.404428,18.2157934 254.81845,19.579631 C254.235424,20.9434686 253.890037,22.4224354 253.783764,24.0165314 L275.569742,24.0165314 Z M264.729889,39.4261255 C262.78155,39.4261255 260.973432,39.0453137 259.308487,38.28369 C257.643542,37.5220664 256.201476,36.477048 254.979336,35.1486347 C253.757196,33.8202214 252.800738,32.2881181 252.108487,30.5523247 C251.419188,28.8180074 251.073801,26.9567528 251.073801,24.9729889 C251.073801,23.0246494 251.419188,21.1929151 252.108487,19.4733579 C252.800738,17.7552768 253.748339,16.2497417 254.952768,14.9567528 C256.157196,13.6637638 257.58155,12.6453137 259.230258,11.9014022 C260.877491,11.1574908 262.657565,10.7855351 264.57048,10.7855351 C266.517343,10.7855351 268.325461,11.1663469 269.990406,11.9294465 C271.655351,12.6895941 273.088561,13.7169004 274.294465,15.0098893 C275.497417,16.3028782 276.437638,17.8084133 277.110701,19.5264945 C277.782288,21.2445756 278.120295,23.0615498 278.120295,24.9729889 L278.120295,25.6371956 C278.120295,25.9028782 278.102583,26.0726199 278.065683,26.1419926 L253.835424,26.1419926 C253.943173,27.7375646 254.315129,29.2150554 254.952768,30.578893 C255.590406,31.9427306 256.39631,33.1205904 257.37048,34.1124723 C258.344649,35.1058303 259.469373,35.88369 260.744649,36.4504797 C262.019926,37.0187454 263.382288,37.3006642 264.836162,37.3006642 C265.79262,37.3006642 266.731365,37.1678229 267.652399,36.9021402 C268.573432,36.6364576 269.432472,36.2748339 270.22952,35.8128413 C271.026568,35.3538007 271.733579,34.7958672 272.354982,34.1390406 C272.973432,33.48369 273.460517,32.7678229 273.816236,31.9870111 L276.154244,32.6246494 C275.764576,33.6165314 275.187454,34.5287085 274.427306,35.3626568 C273.664207,36.1936531 272.778598,36.9109963 271.77048,37.5146863 C270.760886,38.1169004 269.652399,38.584797 268.449446,38.9213284 C267.243542,39.2578598 266.005166,39.4261255 264.729889,39.4261255 L264.729889,39.4261255 Z" id="Fill-16"></path>
                        <polygon id="Fill-17" points="283.008856 38.895203 285.346863 38.895203 285.346863 34.3785978 283.008856 34.3785978"></polygon>
                        <path d="M300.01048,37.3006642 C302.065092,37.3006642 303.951439,36.9109963 305.66952,36.1316605 C307.387601,35.3538007 308.707159,34.3250185 309.629668,33.0497417 C310.194982,32.3058303 310.479852,31.5988192 310.479852,30.9242804 L310.479852,26.0357196 C309.204576,25.5397786 307.874686,25.1678229 306.494613,24.9198524 C305.111587,24.6718819 303.6769,24.5478967 302.190554,24.5478967 C300.807528,24.5478967 299.549963,24.6999262 298.416384,24.9995572 C297.282804,25.3006642 296.308635,25.7169004 295.493875,26.2482657 C294.679114,26.779631 294.050332,27.4276015 293.607528,28.1877491 C293.164723,28.9508487 292.943321,29.7907011 292.943321,30.7117343 C292.943321,31.6327675 293.120443,32.5006642 293.474686,33.3154244 C293.82893,34.1316605 294.324871,34.8298155 294.962509,35.4143173 C295.601624,35.9988192 296.352915,36.4608118 297.220812,36.7958672 C298.088708,37.1338745 299.018598,37.3006642 300.01048,37.3006642 M299.48059,39.4261255 C298.203838,39.4261255 297.017122,39.2047232 295.920443,38.7619188 C294.820812,38.3191144 293.855498,37.7169004 293.024502,36.9552768 C292.190554,36.1936531 291.544059,35.2918081 291.083542,34.2453137 C290.624502,33.2017712 290.392768,32.075572 290.392768,30.8726199 C290.392768,29.6667159 290.676162,28.5685609 291.244428,27.576679 C291.809742,26.584797 292.59941,25.7257565 293.607528,24.9995572 C294.618598,24.2748339 295.830406,23.7065683 297.24738,23.2991882 C298.664354,22.8918081 300.224502,22.6881181 301.923395,22.6881181 C303.412694,22.6881181 304.907897,22.8209594 306.413432,23.0866421 C307.918967,23.3523247 309.273948,23.7169004 310.479852,24.175941 L310.479852,21.4659779 C310.479852,18.8445756 309.734465,16.7633948 308.246642,15.2224354 C306.758819,13.681476 304.739631,12.9124723 302.190554,12.9124723 C300.842952,12.9124723 299.418598,13.1943911 297.911587,13.7611808 C296.406052,14.3294465 294.875424,15.1427306 293.316753,16.2054613 L292.305683,14.3988192 C295.848118,11.9914391 299.213432,10.7855351 302.401624,10.7855351 C305.731513,10.7855351 308.352915,11.7508487 310.26583,13.681476 C312.178745,15.6135793 313.136679,18.277786 313.136679,21.678524 L313.136679,35.176679 C313.136679,36.0608118 313.524871,36.5036162 314.305683,36.5036162 L314.305683,38.8947601 C314.127085,38.9301845 313.941107,38.9567528 313.747749,38.9744649 C313.551439,38.9921771 313.383173,39.0010332 313.242952,39.0010332 C312.532989,39.0010332 311.967675,38.7619188 311.541107,38.28369 C311.116015,37.8054613 310.868044,37.2298155 310.798672,36.5567528 L310.798672,34.2718819 C309.521919,35.9368266 307.892399,37.2121033 305.908635,38.0977122 C303.924871,38.983321 301.781697,39.4261255 299.48059,39.4261255" id="Fill-18"></path>
                        <path d="M320.893727,38.895203 L323.550554,38.895203 L323.550554,11.2642066 L320.893727,11.2642066 L320.893727,38.895203 Z M320.893727,4.99557196 L323.550554,4.99557196 L323.550554,0.105535055 L320.893727,0.105535055 L320.893727,4.99557196 Z" id="Fill-19"></path>
                    </g>
                </g>
            </g>
            <g id="Group" transform="translate(3.000000, 1.000000)" fill="#5798D2">
                <polygon id="Fill-1" points="18.0238659 0.301282885 0.588606375 25.3453355 18.0238659 50.3920371 52.8950395 50.3920371 49.018065 44.8225715 21.9008404 44.8225715 8.34255537 25.3453355 21.9008404 5.86942405 49.0187195 5.86942405 52.8950395 0.301282885"></polygon>
                <polygon id="Fill-2" points="49.0172797 44.8228364 62.5768736 25.3456004 49.0179341 5.86902671 35.4589946 25.3456004"></polygon>
            </g>
        </g>
    </g>
</svg>