<?xml version="1.0" encoding="UTF-8" standalone="no"?>
<svg width="128px" height="128px" viewBox="0 0 128 128" version="1.1" xmlns="http://www.w3.org/2000/svg" xmlns:xlink="http://www.w3.org/1999/xlink">
    <!-- Generator: Sketch 43.2 (39069) - http://www.bohemiancoding.com/sketch -->
    <title>News - CFPB Logo</title>
    <desc>Created with Sketch.</desc>
    <defs></defs>
    <g id="Dashboard---News-Section-Logos" stroke="none" stroke-width="1" fill="none" fill-rule="evenodd">
        <g id="News-Section-Logos" transform="translate(-120.000000, -102.000000)">
            <g id="News---CFPB-Logo" transform="translate(120.000000, 102.000000)">
                <path d="M64,1 C98.7939392,1 127,29.2060608 127,64 C127,98.7939392 98.7939392,127 64,127 C29.2060608,127 1,98.7939392 1,64 C1.0385779,29.2220528 29.2220528,1.0385779 64,1 L64,1 Z M64,0 C28.653776,3.10862447e-15 7.10542736e-15,28.653776 0,64 C-7.10542736e-15,99.346224 28.653776,128 64,128 C99.346224,128 128,99.346224 128,64 C128,28.653776 99.346224,1.33226763e-14 64,1.15463195e-14 L64,0 Z" id="Shape" fill="#2C6DDF" fill-rule="nonzero"></path>
                <g id="Group-12" transform="translate(16.000000, 28.000000)">
                    <g id="Group-10" transform="translate(24.000000, 0.000000)">
                        <polygon id="Shape-Copy" points="0 0 72 0 72 72 0 72"></polygon>
                        <path d="M57.9985714,12.8571429 L14.2842857,12.8571429 L14.2842857,18.54 L57.9985714,18.54 L57.9985714,12.8571429 Z M60.7371429,41.2457143 L60.7371429,35.5757143 L58.0114286,21.4328571 L14.2971429,21.4328571 L11.5714286,35.5757143 L11.5714286,41.2585714 L14.2842857,41.2585714 L14.2842857,58.2942857 L41.6057143,58.2942857 L41.6057143,41.2585714 L52.5342857,41.2585714 L52.5342857,58.2942857 L57.9985714,58.2942857 L57.9985714,41.2585714 L60.7371429,41.2457143 Z M36.1414286,52.6114286 L19.7485714,52.6114286 L19.7485714,41.2585714 L36.1414286,41.2585714 L36.1414286,52.6114286 Z" id="Shape-Copy-2" fill="#2C6DDF" fill-rule="nonzero"></path>
                    </g>
                    <g id="Group-9" transform="translate(0.000000, 28.000000)">
                        <polygon id="Shape-Copy-3" points="0 0 32 0 32 32 0 32"></polygon>
                        <path d="M6,29.3333333 L6,19.3333333 L4,19.3333333 L4,12 C4,10.5272407 5.19390733,9.33333333 6.66666667,9.33333333 L10.6666667,9.33333333 C12.139426,9.33333333 13.3333333,10.5272407 13.3333333,12 L13.3333333,19.3333333 L11.3333333,19.3333333 L11.3333333,29.3333333 L6,29.3333333 Z M22.6666667,29.3333333 L22.6666667,21.3333333 L26.6666667,21.3333333 L23.28,11.16 C22.9177578,10.0685666 21.8966428,9.33228893 20.7466667,9.33333333 L20.5866667,9.33333333 C19.4366905,9.33228893 18.4155755,10.0685666 18.0533333,11.16 L14.6666667,21.3333333 L18.6666667,21.3333333 L18.6666667,29.3333333 L22.6666667,29.3333333 Z M8.66666667,8 C10.139426,8 11.3333333,6.80609267 11.3333333,5.33333333 C11.3333333,3.860574 10.139426,2.66666667 8.66666667,2.66666667 C7.19390733,2.66666667 6,3.860574 6,5.33333333 C6,6.80609267 7.19390733,8 8.66666667,8 Z M20.6666667,8 C22.139426,8 23.3333333,6.80609267 23.3333333,5.33333333 C23.3333333,3.860574 22.139426,2.66666667 20.6666667,2.66666667 C19.1939073,2.66666667 18,3.860574 18,5.33333333 C18,6.80609267 19.1939073,8 20.6666667,8 Z" id="Shape" fill="#2C6DDF" fill-rule="nonzero"></path>
                    </g>
                </g>
            </g>
        </g>
    </g>
</svg>