<?xml version="1.0" encoding="UTF-8" standalone="no"?>
<svg width="128px" height="128px" viewBox="0 0 128 128" version="1.1" xmlns="http://www.w3.org/2000/svg" xmlns:xlink="http://www.w3.org/1999/xlink">
    <!-- Generator: Sketch 43.2 (39069) - http://www.bohemiancoding.com/sketch -->
    <title>News - Monetary Logo</title>
    <desc>Created with Sketch.</desc>
    <defs>
        <path d="M0,1.00711337 C0,0.450900014 0.44584517,8.87166112e-14 1.00038553,8.79960478e-14 L68.8177963,-1.25119924e-16 C69.370294,-8.43029078e-16 69.8181818,0.441379894 69.8181818,1.00711337 L69.8181818,33.9019775 C69.8181818,34.4581909 69.3723366,34.9090909 68.8177963,34.9090909 L1.00038553,34.9090909 C0.447887857,34.9090909 0,34.467711 0,33.9019775 L0,1.00711337 Z" id="path-1"></path>
        <rect id="path-2" x="26.1818182" y="8.72727273" width="17.4545455" height="17.4545455" rx="8.72727273"></rect>
        <path d="M0,5.81818182 C0,2.60488873 2.61142713,0 5.81818182,0 L11.6363636,0 L11.6363636,11.6363636 L0,11.6363636 L0,5.81818182 Z" id="path-3"></path>
        <path d="M0,5.81818182 C0,2.60488873 2.61142713,0 5.81818182,0 L11.6363636,0 L11.6363636,11.6363636 L0,11.6363636 L0,5.81818182 Z" id="path-4"></path>
        <circle id="path-5" cx="65.5465603" cy="29.5465603" r="4.36363636"></circle>
        <circle id="path-6" cx="56.5235566" cy="30.3417384" r="3.27272727"></circle>
        <path d="M0,0 L5.81818182,0 C9.03147491,0 11.6363636,2.61142713 11.6363636,5.81818182 L11.6363636,11.6363636 L0,11.6363636 L0,0 Z" id="path-7"></path>
        <path d="M0,0 L5.81818182,0 C9.03147491,0 11.6363636,2.61142713 11.6363636,5.81818182 L11.6363636,11.6363636 L0,11.6363636 L0,0 Z" id="path-8"></path>
        <circle id="path-9" cx="60.591462" cy="32.2278256" r="2.18181818"></circle>
    </defs>
    <g id="Dashboard---News-Section-Logos" stroke="none" stroke-width="1" fill="none" fill-rule="evenodd">
        <g id="News-Section-Logos" transform="translate(-376.000000, -102.000000)">
            <g id="News---Monetary-Logo" transform="translate(376.000000, 102.000000)">
                <g id="Group-14-Copy-5">
                    <g id="Group-5">
                        <g id="Group-26" transform="translate(28.000000, 46.000000)">
                            <g id="Group-23-Copy">
                                <g id="Rectangle-7-Copy-40">
                                    <use fill="#F0F8E8" fill-rule="evenodd" xlink:href="#path-1"></use>
                                    <path stroke="#2EA87F" stroke-width="5" d="M2.5,2.5 L67.3181818,2.5 L67.3181818,32.4090909 L2.5,32.4090909 L2.5,2.5 Z"></path>
                                </g>
                                <g id="Rectangle-7-Copy-39" transform="translate(34.909091, 17.454545) rotate(90.000000) translate(-34.909091, -17.454545) ">
                                    <use fill="#2EA87F" fill-rule="evenodd" xlink:href="#path-2"></use>
                                    <rect stroke="#2EA87F" stroke-width="1" x="26.6818182" y="9.22727273" width="16.4545455" height="16.4545455" rx="8.22727273"></rect>
                                </g>
                            </g>
                            <g id="Group-25-Copy" transform="translate(63.000000, 29.000000) scale(-1, 1) translate(-63.000000, -29.000000) translate(57.000000, 23.000000)">
                                <g id="Rectangle-7-Copy-13" transform="translate(5.818182, 5.818182) rotate(90.000000) translate(-5.818182, -5.818182) ">
                                    <use fill="#2EA87F" fill-rule="evenodd" xlink:href="#path-3"></use>
                                    <path stroke="#2EA87F" stroke-width="1" d="M11.1363636,0.5 L11.1363636,11.1363636 L0.5,11.1363636 L0.5,5.81818182 C0.5,2.88337442 2.88522451,0.5 5.81818182,0.5 L11.1363636,0.5 Z"></path>
                                </g>
                                <circle id="Oval-2-Copy-3" stroke="#F0F8E8" fill="#F0F8E8" cx="5.81818182" cy="5.81818182" r="1.45454545"></circle>
                            </g>
                            <g id="Group-25" transform="translate(1.000000, 23.000000)">
                                <g id="Rectangle-7-Copy-13" transform="translate(5.818182, 5.818182) rotate(90.000000) translate(-5.818182, -5.818182) ">
                                    <use fill="#2EA87F" fill-rule="evenodd" xlink:href="#path-4"></use>
                                    <path stroke="#2EA87F" stroke-width="1" d="M11.1363636,0.5 L11.1363636,11.1363636 L0.5,11.1363636 L0.5,5.81818182 C0.5,2.88337442 2.88522451,0.5 5.81818182,0.5 L11.1363636,0.5 Z"></path>
                                </g>
                                <circle id="Oval-2-Copy-3" stroke="#F0F8E8" fill="#F0F8E8" cx="5.45454545" cy="5.45454545" r="1.45454545"></circle>
                            </g>
                            <g id="Oval-5-Copy-16" transform="translate(65.546560, 29.546560) scale(-1, -1) rotate(-19.000000) translate(-65.546560, -29.546560) ">
                                <use fill="#FFB200" fill-rule="evenodd" xlink:href="#path-5"></use>
                                <circle stroke="#F79649" stroke-width="2" cx="65.5465603" cy="29.5465603" r="5.36363636"></circle>
                            </g>
                            <g id="Oval-5-Copy-12" transform="translate(56.523557, 30.341738) scale(-1, -1) rotate(-19.000000) translate(-56.523557, -30.341738) ">
                                <use fill="#FFB200" fill-rule="evenodd" xlink:href="#path-6"></use>
                                <circle stroke="#F79649" stroke-width="2" cx="56.5235566" cy="30.3417384" r="4.27272727"></circle>
                            </g>
                            <g id="Group-24" transform="translate(0.000000, 1.000000)">
                                <g id="Rectangle-7-Copy-41" transform="translate(5.818182, 5.818182) rotate(90.000000) translate(-5.818182, -5.818182) ">
                                    <use fill="#2EA87F" fill-rule="evenodd" xlink:href="#path-7"></use>
                                    <path stroke="#2EA87F" stroke-width="1" d="M0.5,0.5 L5.81818182,0.5 C8.75298922,0.5 11.1363636,2.88522451 11.1363636,5.81818182 L11.1363636,11.1363636 L0.5,11.1363636 L0.5,0.5 Z"></path>
                                </g>
                                <circle id="Oval-2-Copy-9" stroke="#F0F8E8" fill="#F0F8E8" cx="5.45454545" cy="5.45454545" r="1.45454545"></circle>
                            </g>
                            <g id="Group-24-Copy" transform="translate(63.000000, 7.000000) scale(-1, 1) translate(-63.000000, -7.000000) translate(57.000000, 1.000000)">
                                <g id="Rectangle-7-Copy-41" transform="translate(5.818182, 5.818182) rotate(90.000000) translate(-5.818182, -5.818182) ">
                                    <use fill="#2EA87F" fill-rule="evenodd" xlink:href="#path-8"></use>
                                    <path stroke="#2EA87F" stroke-width="1" d="M0.5,0.5 L5.81818182,0.5 C8.75298922,0.5 11.1363636,2.88522451 11.1363636,5.81818182 L11.1363636,11.1363636 L0.5,11.1363636 L0.5,0.5 Z"></path>
                                </g>
                                <circle id="Oval-2-Copy-9" stroke="#F0F8E8" fill="#F0F8E8" cx="5.45454545" cy="5.45454545" r="1.45454545"></circle>
                            </g>
                            <g id="Oval-5-Copy-14" transform="translate(60.591462, 32.227826) scale(-1, -1) rotate(-19.000000) translate(-60.591462, -32.227826) ">
                                <use fill="#FFB200" fill-rule="evenodd" xlink:href="#path-9"></use>
                                <circle stroke="#F79649" stroke-width="2" cx="60.591462" cy="32.2278256" r="3.18181818"></circle>
                            </g>
                        </g>
                        <path d="M64,1 C98.7939392,1 127,29.2060608 127,64 C127,98.7939392 98.7939392,127 64,127 C29.2060608,127 1,98.7939392 1,64 C1.0385779,29.2220528 29.2220528,1.0385779 64,1 L64,1 Z M64,1.77635684e-15 C28.653776,5.77315973e-15 7.10542736e-15,28.653776 0,64 C-7.10542736e-15,99.346224 28.653776,128 64,128 C99.346224,128 128,99.346224 128,64 C128,47.0261447 121.257162,30.7474942 109.254834,18.745166 C97.2525058,6.74283778 80.9738553,8.8817842e-16 64,0 L64,1.77635684e-15 Z" id="Shape-Copy-8" fill="#2EA87F" fill-rule="nonzero"></path>
                    </g>
                </g>
            </g>
        </g>
    </g>
</svg>