<svg id="Layer_1" data-name="Layer 1" xmlns="http://www.w3.org/2000/svg" viewBox="0 0 128 128.25"><defs><style>.cls-1{fill:#fff;}.cls-2,.cls-3{fill:#fcc102;}.cls-3{stroke:#fcc102;stroke-linecap:round;stroke-linejoin:round;stroke-width:0.5px;}</style></defs><title>News - State - CA</title><path id="Shape" class="cls-1" d="M64,128.25a63.5,63.5,0,1,1,63.5-63.5A63.5,63.5,0,0,1,64,128.25Z"/><path id="Shape-2" data-name="Shape" class="cls-2" d="M64,1A63,63,0,1,1,1,64,63,63,0,0,1,64,1Zm0-1a64,64,0,1,0,45.25,18.75A64,64,0,0,0,64,0Z"/><path class="cls-3" d="M63.66,96.12l-.2-.08,0,0-.1-.07-.06.05-.07,0h-.08L63,96l.07.22.15.16.21.1.23,0,.21-.07-.06-.16Zm-.48-5.65.06-.09v-.11h0l-.17-.13-.05,0h-.07l-.09.05-.25.21-.05,0h-.07l-.55-.25H61.8l-.27,0-.11,0-.34-.18h-.22l0,0-.06.05,0,.05,0,0,.11,0,.08.06.07.08.07.09-.08.2.16.15.26.09.22,0,1.4-.29Zm3.27,4h0l0,0-.07,0,0,0v0l0,.07,0,0h0l.06-.13v-.06ZM60.1,90.57,60,90.4v-.2l-.1.08-.11,0-.38,0-.07,0-.07,0-.1,0h-.14l-.27-.05-.12.05.12.11.14.17.12.18.05.14.06.08.14.09.15.06.11,0,.07-.05h.06l.07,0h.1l.07,0,.33-.22.08-.08,0-.12v-.19l-.18,0Zm-1.8-.35-.06,0-.07,0-.07,0,0-.05L58,90l-.07-.06,0,.14-.08.05-.19,0-.12.09,0,.08.05,0,.08-.08.18.08.17,0h.39l0-.08Zm5.84.26-.09,0-.05,0-.08,0h-.06l0,0,0,0,.11.05h.15l.09,0v0Zm33.38-2.33V88l-.2-.13-.07-.08-.06-.05-.11-.06-.53-.39-.09-.11,0,0-.13-.08,0,0,0-.06,0,0H96l0,0,0-.05,0-.09v-.07h0l0-.11,0-.11-.06-.08h0l0-.16-.07-.08-.08-.07L95.65,86V85.7l0,0,0,0-.41-.85-.17,0-.13-.08-.08-.15v-.21l0-.09,0-.12L94.64,84l-.09,0-.1,0,0-.09c0-.32-.05-.64-.07-1-1.44-1.34-2.88-2.67-4.29-4l-4.16-4-4.18-4.06-.23-.22-4.3-4-4-3.81-.95-.9L67.74,57.9,63.33,54l-3-2.7c0-1.95,0-3.9,0-5.85s0-3.63,0-5.44q0-3,0-6.06t0-6q0-.78,0-1.55H33.58l.07.15,0,.09v.09l0,.78,0,.14-.16.32-.17.23v.05l.21.09.32.23.25.28,0,.24v.13l.08.2.07.19.05.08,0,0v.3l0,.08.05.06.06,0,.07,0-.09.15,0,.27.1.51,0,.25-.12.48-.06.44-.14.57-.12.29-.07.31-.1.12,0,.14V34l0,.11v.12l.21.33.06.18v.19l-.38,1.24-.28.45-.07.18.12-.06.11-.15.28-.51,0,0,.26,0,.07,0,.06,0h0l-.1.19-.12.07-.14,0-.17.06-.09.11-.16.33-.07.07v.33l-.06.16-.15-.07-.09-.09v0l0-.17,0-.06-.19.26-.11.2-.09.26v0l0,0v0l0,0h0l0,0v0l0,.09-.18.33-.05.12-.12.44V39l0,.13-.06.14,0,.13,0,.11.09.17.19.5,0,.21-.07.38,0,.2.1.09.09,0,.84.76.35.21.12.11.25.36v.06l0,.19,0,.07,0,0,.16.05.06,0,.2.19.91,1.33,0,.14L36,45l.06.19,0,.1,0,0,.07,0,0,.07,0,.08,0,.07,0,.13,0,.57.18.48,0,.08-.09.08-.07.18-.07.36-.06.57-.1.29.12.29v.15l.06.06,0,.11.07.22.08.37.06.17.1.07.24.56v.44l.06.16v.09l0,.2-.07.1-.09.08-.08.14,0,.24.18.27.44.49.34.27.06.08.06.12.13.12.24.17.2.2L39.42,55l.21.19.77.4.19.2.16.48.16.16v.4L41,57v-.22l.37.25.11.13,0,.06,0,.15,0,.07.18.22.3.49.25.3.1.17,0,.19-.11-.16-.16-.15L42,58.3l-.06-.21L41.86,58l-.33-.34-.13-.1.19.47,0,.22-.21.79-.18.32,0,.12h.22l0,0v0l.07-.11,0-.07.05-.07.09-.07,0,0,0,0-.06-.11.05,0,0,0,0,0,0-.07.11.25.18.15.41.2,0,0,.08.07.07.1.06.22.07.07.15.08.08.07.16.22.08,0,.07-.05,0-.11,0-.12.35.29.19.2.22.16.09.09.11.08.15,0h.14l.09-.09v-.14l-.07-.11,0-.1.09-.09.05.12.08,0,.06,0,0-.13-.07-.11-.2-.17-.08-.1,0,0,.05-.06,0,0-.06-.08v-.09l.06-.07.18-.06-.06-.07-.17-.11,0-.16v-.46l0-.21h.25l.17,0,.12-.11.11-.22.67.38.11.14,0,.07.07.06.09,0,.2,0,.32.14h.13l.08,0,.07,0,.22-.21,0-.05,0-.07,0-.16,0-.05.07-.05.11-.06.12,0h.09l.11.08v.1l-.12.26.29.09.32,0,0,.1,0,0,0,0,.08,0h.11l.11,0,.09,0v-.08h.08l.22,0h.09l.24,0,.13-.07.14-.16.19-.32h0l0,.19-.06.15-.09.12-.12.1-.07,0h-.07l-.07,0-.05.06,0,.07V59l0,.05,0,0,.28,0,.15-.06.06-.09v-.11l0-.06.09-.11,0,0h0l0,0h.08l0-.07,0,0h.15l.11,0,.09.05.43.37.11,0L51,59l.11.13.09.13v.06l-.11,0-.13-.1-.12-.13L50.74,59l-.11,0-.15-.07-.23-.17,0-.05v-.07l0-.06-.07,0h-.07l-.05,0,0,0,0,0h-.14l-.07,0,0,.07v.15l0,.07,0,0h-.06l-.06,0-.05,0,0,.05,0,0,.19.06-.13.07h-.13l-.26-.1-.77-.08-.31-.1-.77-.09-.14,0-.29.19-.15,0-.13,0-.24-.19-.14,0-.14,0L46,59l-.3.3-.07,0h-.09l-.07,0-.06,0h0l0,.18-.08.13-.1.1-.1,0,.17.27.25.12.22.15.06.38-.09.3v.17l.11.08.13,0,.33.12.12.07-.26.11h0l.09,0,0,.12.05,0,.16,0,.08.05,0,.06.12.31.27.92.08.17.1.12h.2l0,0,0,.07v.14l0,0h0l.1.05-.09.08-.13,0h-.14L47,63.69l-.07-.1-.07-.14-.07-.1H46.7l-.07-.05-.07-.07-.07,0-.14.06,0-.06,0-.09,0-.07L46.18,63h-.07l0,0,0-.14,0,0-.21,0h-.07l-.11-.16,0,0-.05,0h-.11l-.06,0-.08-.08,0-.06v-.07l0-.1v-.08l0-.51,0-.07,0,0,.1,0h-.1l0,0v-.13L45.18,61l-.06-.08-.13,0h-.27l-.13,0-.09.07-.11.31,0,.35.08.34,0,.31,0,.14-.11.24,0,.19,0,.35.07.07h.16l.07,0,.1.14.07.34.07.14.09.13.06.16,0,.17,0,.16,0,.34-.07.31v.3l.15.29.19.16.08.1,0,.15.07.09.41.31.36.47.2.19.49.3.12.05.14,0,.15,0,.14-.05h.12l.11.09.21-.13.19,0,.17.1.17.22.37.7.15.21-.13.48.06,0h.11l.06,0,0,.06v.1l0,.06-.15,0h-.09l0,.08,0,.38-.05.16-.08.15-.09.12-.13.07-.1-.06-.1-.1-.12,0-.1.06-.09.13-.12.3.11,0,.08.06.07,0,.06.06,0,.1,0,.07-.12,0,0,.07,0,.14.16.38.07.33,0,.34v.06l.08.23,0,.1v.1l0,.07.07.05.07,0,.05,0,0,.11,0,.08.07.08.08.06.19.05.61.41.19.2.32.54.11.29.08.14.1.06.15,0,.13.05.1.08.08.1.06.12.06.15,0,.17v.18l0,.16.09.11.22.19.15.22.08.1.23.12.07.18.07.34.24.47.14,0,.37.19L53,78l.19.2.19.37.22.26.18.24.17.17.18.13.43.07.16.07.07.09,0,.11.06.21,0,.09.12.17,0,.11-.1.06-.09,0,0-.05.06-.13,0,0-.17.5V81l0,.13.06.12.16.15.38.15.17.12,0,0,.11,0,.13,0h.1l.05,0,.12.12.05,0,.11,0,.05,0,.06.24,0,.27,0,.3,0,.3-.19.48,0,.18,0,.07.19.17,0,.06,0,.06,0,.07,0,.08v.18l-.1.3,0,.18.08.11.07.14,0,.15,0,.2-.05.14-.05.11,0,.12-.06.24-.06.13,0,.09.08.08.16.05.19.05h.15l.23.19.18.26.15.3h.27l.6-.13.94-.06.31,0,.27.11.32-.1.37.13.65.33.12,0,.14-.06.14,0,.1,0,.08.07.15.09.16.07h.12l.07-.05.05-.07.06-.06.32-.07.14,0h.23l.07,0,.14.13.4.18.23.07.76.68.09,0h.15l.07,0,.06,0,0,.07v.08l0,.07.08,0,0,.09,0,.1.06.11.07.1,0,0,0,.1,0,0,0,0h.06l0,0,.28.26.17.09H66l-.09,0-.06,0h0l0-.07.21,0,.53.32.63.18.32,0,.25.11.11.11.11-.07.13-.05.92-.11h.09l.06,0h0l.07,0,.1-.06.16,0,.19.13.2.18.24.38.15.35.13.28,0,.14v.36l-.05.1-.09.1,0,.13.13.17,0,0,.07,0h.07l.06,0,.07,0,.06.07.06.09.06,0,.06,0,.07,0,.07,0,.07,0,0,0v-.13l0-.23,0,0,.08,0,0,0,.06,0h.06l.16.11h.1l.13,0h.17l.12.05.86.86.22.18.75.39.3.24.26.34.13.07.28.17.1.08.37.39.59.41L77,96.82l.34.71.12.38v.14l.06.09.17.76V99l-.06.15-.07.08-.05.08v.16l.16.24,0,.11V100l0,.33v.08l.06.13,0,.1,0-.07,0-.24.06-.08.08,0h0l.11,0,.11.06.14.06.07.06.1.15.09.17,0,.13,0,.06-.08,0,0-.1-.09-.15-.07-.14-.08-.07v-.1l-.12,0H78l-.06.08,0,.07h.18l.14.1.1.17.11.22,0,.19,0,.17,0,.21,0,.05h0l5.82-.52,5.82-.52,3.52-.31h0l0-.1L94,100l.66.14.27-.06L95,100v-.27l0-.13.08-.1.24-.16.07-.1,0-.16-.1-.48v-.24l0-.1L95.13,98l-.22-.12-.58,0-.25-.1-.19-.27,0-.26.1-.28,0-.33L94,96.12l0-.1-.2-.23v-.11l.06-.21.08-.08,0-.06,0-.08-.05-.06-.07-.1,0-.09.06,0,.31,0,.16,0,.11-.09.23-.44.06-.18.06-.08.13-.13.09-.11,0-.05,0-.1,0-.17v-.1l.06,0,0,0v-.25l0-.19.07-.11.07-.09,0-.11-.07-.14,0-.08,0,0,0,0v-.18l0,0L95.08,92l0-.18v-.31l.11-.09.05-.07v-.07l-.12-.15L95,91.08,95,91l0-.17.1-.1.25-.17.1-.1.1-.12.07-.15.05-.32.07-.14.1-.11.23-.07.65-.46.12,0,.2-.26.21-.21.2-.15.05-.1ZM70.66,95l-.54-.21-.1,0-.42-.26-.17,0-.15,0-.05.11.07.1.15.08.16.05.12,0,.17,0,.06.11v.32l0,.17.06.13.09.09.14,0,.06,0,.16-.08.06,0,.09,0,.21.13.13,0,.1,0,0-.1-.37-.55Zm-.29,4.07-.24-.31-.3-.23-.13-.14-.09-.2,0-.05,0-.08,0-.08,0-.07,0-.07-.07,0h-.09l-.08,0V98l.1.2.12.18.11.28.24.34.11.26.14.12.16.09.12.05h.06l0,0,0,0h.3l.07,0-.29-.23ZM41.29,61.73l0,0v0h0v0l0-.08h0Zm3.59-1.35v0h0l0,0v.07h0l0,0h.05l0-.1h0Zm.35.32,0,.1h0l.08.09v0h0l0,0v-.13h-.08Z"/></svg>