<?xml version="1.0" encoding="UTF-8" standalone="no"?>
<svg width="128px" height="128px" viewBox="0 0 128 128" version="1.1" xmlns="http://www.w3.org/2000/svg" xmlns:xlink="http://www.w3.org/1999/xlink">
    <!-- Generator: Sketch 43.2 (39069) - http://www.bohemiancoding.com/sketch -->
    <title>News - Examination Logo</title>
    <desc>Created with Sketch.</desc>
    <defs></defs>
    <g id="Dashboard---News-Section-Logos" stroke="none" stroke-width="1" fill="none" fill-rule="evenodd">
        <g id="News-Section-Logos" transform="translate(-881.000000, -102.000000)">
            <g id="News---Examination-Logo" transform="translate(881.000000, 102.000000)">
                <g id="Group-52">
                    <path d="M64.5,128 C29.4299184,128 1,99.5700816 1,64.5 C1,29.4299184 29.4299184,1 64.5,1 C99.5700816,1 128,29.4299184 128,64.5 C127.961421,99.5540894 99.5540894,127.961421 64.5,128 L64.5,128 Z" id="Shape" fill="#FFFFFF" fill-rule="nonzero"></path>
                    <path d="M64,1 C98.7939392,1 127,29.2060608 127,64 C127,98.7939392 98.7939392,127 64,127 C29.2060608,127 1,98.7939392 1,64 C1.0385779,29.2220528 29.2220528,1.0385779 64,1 L64,1 Z M64,1.77635684e-15 C28.653776,5.77315973e-15 7.10542736e-15,28.653776 0,64 C-7.10542736e-15,99.346224 28.653776,128 64,128 C99.346224,128 128,99.346224 128,64 C128,47.0261447 121.257162,30.7474942 109.254834,18.745166 C97.2525058,6.74283778 80.9738553,8.8817842e-16 64,0 L64,1.77635684e-15 Z" id="Shape" fill="#4FB0B7" fill-rule="nonzero"></path>
                    <g id="ic_assignment_black_24px" transform="translate(32.000000, 33.000000)">
                        <polygon id="Shape" points="0 0 64 0 64 64 0 64"></polygon>
                        <path d="M50.6666667,8 L39.52,8 C38.4,4.90666667 35.4666667,2.66666667 32,2.66666667 C28.5333333,2.66666667 25.6,4.90666667 24.48,8 L13.3333333,8 C10.4,8 8,10.4 8,13.3333333 L8,50.6666667 C8,53.6 10.4,56 13.3333333,56 L50.6666667,56 C53.6,56 56,53.6 56,50.6666667 L56,13.3333333 C56,10.4 53.6,8 50.6666667,8 Z M32,8 C33.4666667,8 34.6666667,9.2 34.6666667,10.6666667 C34.6666667,12.1333333 33.4666667,13.3333333 32,13.3333333 C30.5333333,13.3333333 29.3333333,12.1333333 29.3333333,10.6666667 C29.3333333,9.2 30.5333333,8 32,8 Z M37.3333333,45.3333333 L18.6666667,45.3333333 L18.6666667,40 L37.3333333,40 L37.3333333,45.3333333 Z M45.3333333,34.6666667 L18.6666667,34.6666667 L18.6666667,29.3333333 L45.3333333,29.3333333 L45.3333333,34.6666667 Z M45.3333333,24 L18.6666667,24 L18.6666667,18.6666667 L45.3333333,18.6666667 L45.3333333,24 Z" id="Shape" fill="#4FB0B7" fill-rule="nonzero"></path>
                    </g>
                </g>
            </g>
        </g>
    </g>
</svg>