<?xml version="1.0" encoding="UTF-8" standalone="no"?>
<svg width="24px" height="24px" viewBox="0 0 24 24" version="1.1" xmlns="http://www.w3.org/2000/svg" xmlns:xlink="http://www.w3.org/1999/xlink">
    <!-- Generator: Sketch 43.1 (39012) - http://www.bohemiancoding.com/sketch -->
    <title>Group 11</title>
    <desc>Created with Sketch.</desc>
    <defs></defs>
    <g id="Nav-Bar" stroke="none" stroke-width="1" fill="none" fill-rule="evenodd">
        <g id="nav-bar-details" transform="translate(-624.000000, -342.000000)">
            <g id="Group-11" transform="translate(624.000000, 339.000000)">
                <g id="ic_search_black_24px-copy-3" transform="translate(12.000000, 15.000000) scale(-1, 1) translate(-12.000000, -15.000000) translate(0.000000, 3.000000)" fill-rule="nonzero" fill="#FFFFFF">
                    <path d="M17.1428571,15.0857143 L16.0594286,15.0857143 L15.6754286,14.7154286 C17.0194286,13.152 17.8285714,11.1222857 17.8285714,8.91428571 C17.8285714,3.99085714 13.8377143,0 8.91428571,0 C3.99085714,0 0,3.99085714 0,8.91428571 C0,13.8377143 3.99085714,17.8285714 8.91428571,17.8285714 C11.1222857,17.8285714 13.152,17.0194286 14.7154286,15.6754286 L15.0857143,16.0594286 L15.0857143,17.1428571 L21.9428571,23.9862857 L23.9862857,21.9428571 L17.1428571,15.0857143 L17.1428571,15.0857143 Z M8.74285714,14.7428571 C5.42285714,14.7428571 2.74285714,12.0628571 2.74285714,8.74285714 C2.74285714,5.42285714 5.42285714,2.74285714 8.74285714,2.74285714 C12.0628571,2.74285714 14.7428571,5.42285714 14.7428571,8.74285714 C14.7428571,12.0628571 12.0628571,14.7428571 8.74285714,14.7428571 Z" id="Shape"></path>
                </g>
                <g id="ic_check_circle_white_24px" transform="translate(3.000000, 0.000000)">
                    <polygon id="Shape" points="0 0 24 0 24 24 0 24"></polygon>
                    <path d="M12.25,5 C8.8,5 6,8.024 6,11.75 C6,15.476 8.8,18.5 12.25,18.5 C15.7,18.5 18.5,15.476 18.5,11.75 C18.5,8.024 15.7,5 12.25,5 Z M11,15.375 L7.875,12.25 L9.17200521,11.1179687 L11,13.0167318 L15.2522786,8.48522135 L16.625,9.75 L11,15.375 Z" id="Shape" fill="#FFFFFF" fill-rule="nonzero"></path>
                </g>
            </g>
        </g>
    </g>
</svg>