<?xml version="1.0" encoding="UTF-8"?>
<svg width="40px" height="20px" viewBox="0 0 40 20" version="1.1" xmlns="http://www.w3.org/2000/svg" xmlns:xlink="http://www.w3.org/1999/xlink">
    <!-- Generator: Sketch 45.2 (43514) - http://www.bohemiancoding.com/sketch -->
    <title>team</title>
    <desc>Created with Sketch.</desc>
    <defs></defs>
    <g id="Payments" stroke="none" stroke-width="1" fill="none" fill-rule="evenodd">
        <g id="option-4" transform="translate(-660.000000, -863.000000)">
            <g id="team" transform="translate(660.000000, 853.000000)">
                <g id="Group-21">
                    <polygon id="Shape" points="0 0 40 0 40 40 0 40"></polygon>
                    <g id="Group-18" transform="translate(0.000000, 10.625000)" fill-rule="nonzero" fill="#2C6DDF">
                        <path d="M30.6486381,7.99529688 C32.8606702,7.99529688 34.632961,6.20968058 34.632961,3.99764844 C34.632961,1.7856163 32.8606702,0 30.6486381,0 C28.4366059,0 26.6509896,1.7856163 26.6509896,3.99764844 C26.6509896,6.20968058 28.4366059,7.99529688 30.6486381,7.99529688 Z M19.9882422,7.99529688 C22.2002743,7.99529688 23.9725652,6.20968058 23.9725652,3.99764844 C23.9725652,1.7856163 22.2002743,0 19.9882422,0 C17.7762101,0 15.9905938,1.7856163 15.9905938,3.99764844 C15.9905938,6.20968058 17.7762101,7.99529688 19.9882422,7.99529688 Z M19.9882422,10.6603958 C16.8834019,10.6603958 10.6603958,12.2194787 10.6603958,15.324319 L10.6603958,18.6556927 L29.3160886,18.6556927 L29.3160886,15.324319 C29.3160886,12.2194787 23.0930825,10.6603958 19.9882422,10.6603958 Z M30.6486381,10.6603958 C30.2621987,10.6603958 29.8224574,10.6870468 29.3560651,10.7270233 C30.9018225,11.8463649 31.9811875,13.3521458 31.9811875,15.324319 L31.9811875,18.6556927 L39.9764844,18.6556927 L39.9764844,15.324319 C39.9764844,12.2194787 33.7534783,10.6603958 30.6486381,10.6603958 Z" id="Shape"></path>
                        <path d="M9.32784636,7.99529688 C11.5398785,7.99529688 13.3121693,6.20968058 13.3121693,3.99764844 C13.3121693,1.7856163 11.5398785,0 9.32784636,0 C7.11581423,0 5.33019792,1.7856163 5.33019792,3.99764844 C5.33019792,6.20968058 7.11581423,7.99529688 9.32784636,7.99529688 Z M9.32784636,10.6603958 C9.71428571,10.6603958 10.154027,10.6870468 10.6204194,10.7270233 C9.07466196,11.8463649 7.99529688,13.3521458 7.99529688,15.324319 L7.99529688,18.6556927 L0,18.6556927 L0,15.324319 C0,12.2194787 6.22300607,10.6603958 9.32784636,10.6603958 Z" id="Shape"></path>
                    </g>
                </g>
            </g>
        </g>
    </g>
</svg>